<?xml version="1.0" encoding="UTF-8"?>
<svg version="1.1" xmlns="http://www.w3.org/2000/svg" width="800" height="600">
<path d="M0 0 C1.396633 -0.00807831 1.396633 -0.00807831 2.82148081 -0.01631981 C5.94293481 -0.03063291 9.06396675 -0.02348731 12.18544006 -0.01637268 C14.42272279 -0.02207448 16.66000262 -0.029038 18.89727783 -0.03717041 C24.97574499 -0.05513773 31.05406806 -0.0539267 37.13255382 -0.04822803 C42.20480472 -0.04514139 47.27702775 -0.05122276 52.34927469 -0.05726677 C64.99820185 -0.07212597 77.64704206 -0.06848859 90.2959627 -0.05640347 C101.2782847 -0.04647103 112.26043823 -0.05941176 123.24273425 -0.08333766 C134.52271979 -0.10772673 145.80262887 -0.11693723 157.08264738 -0.11068493 C163.4141898 -0.10731057 169.74559301 -0.10976238 176.07711601 -0.12693596 C182.03039975 -0.14237834 187.98336128 -0.13847935 193.93663216 -0.11963081 C196.12235578 -0.11593749 198.30810313 -0.11907494 200.49380493 -0.1295166 C203.4761427 -0.14267695 206.45740602 -0.1312225 209.43969727 -0.11352539 C210.30594583 -0.1231304 211.17219439 -0.1327354 212.06469291 -0.14263147 C217.43755353 -0.0769705 220.53944587 0.78653969 224.78334045 4.38768005 C227.14342862 7.9278123 227.01797689 9.3988996 226.97865295 13.5868988 C226.97220764 14.7953949 226.96576233 16.00389099 226.9591217 17.24900818 C226.94236389 18.5116449 226.92560608 19.77428162 226.90834045 21.07518005 C226.89931702 22.34941833 226.89029358 23.62365662 226.8809967 24.93650818 C226.85739687 28.08708633 226.82447239 31.23728988 226.78334045 34.38768005 C227.73209045 34.49080505 228.68084045 34.59393005 229.65834045 34.70018005 C232.78334045 35.38768005 232.78334045 35.38768005 234.78334045 38.38768005 C235.03403878 40.61631203 235.03403878 40.61631203 235.03502274 43.27748108 C235.04023823 44.29178885 235.04545372 45.30609661 235.05082726 46.35114098 C235.04636582 47.4687311 235.04190438 48.58632122 235.03730774 49.73777771 C235.04042772 50.92245447 235.0435477 52.10713123 235.04676223 53.32770729 C235.05337439 56.62167401 235.05097419 59.91541371 235.04478979 63.2093668 C235.04027609 66.75951494 235.04724367 70.30964283 235.05274963 73.85978699 C235.06165687 80.81674381 235.05971572 87.77365756 235.05392435 94.73061609 C235.04941309 100.38317373 235.04879263 106.03571928 235.05097198 111.6882782 C235.05127845 112.49186032 235.05158492 113.29544244 235.05190067 114.12337554 C235.0525401 115.75568374 235.05318853 117.38799195 235.05384585 119.02030015 C235.05955304 134.33726309 235.05298516 149.65420211 235.04224512 164.97116113 C235.03330925 178.12238254 235.03486119 191.27356865 235.04408264 204.42478943 C235.05477841 219.68582173 235.05900369 234.94683305 235.05285811 250.20786858 C235.052221 251.83427302 235.05159225 253.46067746 235.05097198 255.08708191 C235.05066343 255.88736679 235.05035488 256.68765167 235.05003698 257.5121876 C235.04830796 263.15991952 235.0512296 268.80763817 235.05593109 274.45536804 C235.06153223 281.33524732 235.06003969 288.21508094 235.0493696 295.09495497 C235.04410251 298.60718519 235.0420737 302.1193392 235.04866791 305.63156891 C235.05569845 309.43361678 235.04732085 313.23553905 235.03730774 317.0375824 C235.04176918 318.15517252 235.04623063 319.27276264 235.05082726 320.42421913 C235.04561177 321.4385269 235.04039628 322.45283466 235.03502274 323.49787903 C235.03469803 324.37606482 235.03437333 325.2542506 235.03403878 326.15904808 C234.78334045 328.38768005 234.78334045 328.38768005 232.78334045 331.38768005 C232.12334045 331.38768005 231.46334045 331.38768005 230.78334045 331.38768005 C230.78334045 382.20768005 230.78334045 433.02768005 230.78334045 485.38768005 C232.43334045 485.38768005 234.08334045 485.38768005 235.78334045 485.38768005 C239.04496465 488.64930425 238.079427 492.62253736 238.10560608 497.0634613 C238.10238342 498.32545349 238.09916077 499.58744568 238.09584045 500.88768005 C238.12001038 502.78066833 238.12001038 502.78066833 238.14466858 504.7118988 C238.14531311 505.91459412 238.14595764 507.11728943 238.1466217 508.35643005 C238.15109314 510.01835388 238.15109314 510.01835388 238.15565491 511.71385193 C238.03279114 512.59621521 237.90992737 513.47857849 237.78334045 514.38768005 C234.11721754 516.83176199 232.37782733 516.63466966 228.00668335 516.62818909 C227.31399973 516.62989794 226.6213161 516.63160679 225.90764207 516.63336742 C223.58135436 516.63666759 221.25535365 516.62565012 218.92909241 516.61473083 C217.26364651 516.61416683 215.59820012 516.61448306 213.93275452 516.61561584 C209.40617366 516.61619079 204.87969831 516.60441351 200.35314202 516.59046793 C195.62457324 516.57798424 190.89600216 516.57679194 186.16741943 516.57441711 C177.21079783 516.56819539 168.25422491 516.55177522 159.29762477 516.53171813 C149.10186725 516.50938065 138.90610744 516.49837112 128.71033156 516.48832726 C107.73464066 516.46740959 86.75899362 516.43222018 65.78334045 516.38768005 C65.82459045 517.48080505 65.86584045 518.57393005 65.90834045 519.70018005 C65.78334045 523.38768005 65.78334045 523.38768005 63.78334045 526.38768005 C61.89018345 526.76520348 61.89018345 526.76520348 59.53884888 526.76863098 C58.20337761 526.78132019 58.20337761 526.78132019 56.84092712 526.79426575 C55.86165253 526.78819305 54.88237793 526.78212036 53.87342834 526.77586365 C52.84407669 526.78112061 51.81472504 526.78637756 50.75418091 526.79179382 C47.33796694 526.80504063 43.92221574 526.79623837 40.5059967 526.78611755 C38.13949494 526.78813709 35.77299377 526.79104752 33.40649414 526.79481506 C28.44065948 526.7992449 23.47498644 526.79278663 18.50917053 526.77879333 C12.13536986 526.76171058 5.76194837 526.77153299 -0.61183834 526.78951073 C-5.50079213 526.80033863 -10.38965567 526.79690659 -15.27861214 526.78912735 C-17.62901924 526.78712212 -19.97943446 526.78959589 -22.32983208 526.79656601 C-25.61256052 526.80416296 -28.89467065 526.7926 -32.17735291 526.77586365 C-33.15460327 526.78193634 -34.13185364 526.78800903 -35.13871765 526.79426575 C-36.03185165 526.78580627 -36.92498566 526.7773468 -37.84518433 526.76863098 C-38.62150176 526.7674999 -39.39781919 526.76636883 -40.1976614 526.76520348 C-42.76335588 526.28545575 -43.65116326 525.44449048 -45.21665955 523.38768005 C-45.60484314 520.70799255 -45.60484314 520.70799255 -45.61509705 517.51268005 C-45.61896423 516.3628363 -45.62283142 515.21299255 -45.6268158 514.02830505 C-45.61521423 512.8268988 -45.60361267 511.62549255 -45.59165955 510.38768005 C-45.60326111 509.1862738 -45.61486267 507.98486755 -45.6268158 506.74705505 C-45.62294861 505.5972113 -45.61908142 504.44736755 -45.61509705 503.26268005 C-45.61171326 502.20822693 -45.60832947 501.1537738 -45.60484314 500.06736755 C-45.21665955 497.38768005 -45.21665955 497.38768005 -44.1292572 495.52049255 C-42.21665955 494.38768005 -42.21665955 494.38768005 -35.21665955 494.38768005 C-35.21665955 472.27768005 -35.21665955 450.16768005 -35.21665955 427.38768005 C-36.53665955 426.72768005 -37.85665955 426.06768005 -39.21665955 425.38768005 C-41.11752729 421.58594457 -40.69199821 416.93253071 -39.46665955 412.95018005 C-37.8741983 410.9596035 -36.65410578 410.89795843 -34.21665955 410.38768005 C-34.17798767 409.55236755 -34.17798767 409.55236755 -34.13853455 408.70018005 C-33.48419341 399.89631747 -30.16325298 393.80374139 -24.21665955 387.38768005 C-23.55665955 387.05768005 -22.89665955 386.72768005 -22.21665955 386.38768005 C-22.11541233 378.75229694 -22.04525841 371.11708628 -21.99693298 363.48118591 C-21.97679181 360.88248729 -21.94947726 358.28383413 -21.91490173 355.68528748 C-21.86649566 351.95446063 -21.84371554 348.22423186 -21.82603455 344.4931488 C-21.79506683 342.74459846 -21.79506683 342.74459846 -21.76347351 340.96072388 C-21.76302032 339.33938286 -21.76302032 339.33938286 -21.76255798 337.68528748 C-21.75367554 336.73264511 -21.74479309 335.78000275 -21.73564148 334.79849243 C-21.98588968 332.23166521 -21.98588968 332.23166521 -24.18254089 330.74407959 C-24.85380005 330.29646774 -25.5250592 329.8488559 -26.21665955 329.38768005 C-27.19090332 326.46494873 -27.34281815 324.60510114 -27.345294 321.56314182 C-27.34851844 320.56338434 -27.35174289 319.56362685 -27.35506505 318.53357369 C-27.35351645 317.43222948 -27.35196784 316.33088527 -27.35037231 315.19616699 C-27.35263787 314.02853001 -27.35490343 312.86089302 -27.35723764 311.65787309 C-27.36248424 308.4115129 -27.36322058 305.16518741 -27.36204326 301.91882432 C-27.36183957 298.41978628 -27.36735494 294.92075658 -27.37210083 291.42172241 C-27.38041461 284.56470693 -27.38315599 277.70770004 -27.38371321 270.85067994 C-27.38418799 265.27870153 -27.38624084 259.70672597 -27.38941383 254.13474846 C-27.39822211 238.34620099 -27.4028329 222.55766033 -27.40208336 206.76911039 C-27.4020434 205.91757676 -27.40200345 205.06604313 -27.40196228 204.18870544 C-27.4019214 203.33613537 -27.40188052 202.48356529 -27.4018384 201.60515975 C-27.4014318 187.78260748 -27.41100446 173.96008242 -27.42510065 160.13753802 C-27.43945167 145.95350614 -27.44637155 131.76948754 -27.44550687 117.58544821 C-27.44517448 109.61859992 -27.4479401 101.65178019 -27.45868492 93.68493843 C-27.46777314 86.90280817 -27.46997901 80.12071939 -27.4631755 73.33858568 C-27.45990187 69.87685974 -27.45988382 66.41521347 -27.46852875 62.95349503 C-27.47619454 59.20431677 -27.47163982 55.45535014 -27.46389771 51.70617676 C-27.46904127 50.60706327 -27.47418483 49.50794978 -27.47948426 48.37552983 C-27.47488546 47.37316459 -27.47028667 46.37079936 -27.46554852 45.33805943 C-27.46576588 44.47240441 -27.46598325 43.60674939 -27.46620721 42.71486241 C-27.19216114 40.15921765 -26.57409742 38.55941513 -25.21665955 36.38768005 C-22.59612635 34.69701348 -21.39036233 34.38768005 -18.21665955 34.38768005 C-18.23760681 33.66177673 -18.25855408 32.93587341 -18.28013611 32.18797302 C-18.36359605 28.8796845 -18.41541493 25.57161795 -18.46665955 22.26268005 C-18.50017517 21.12057068 -18.5336908 19.9784613 -18.56822205 18.80174255 C-18.69345194 8.03197149 -18.69345194 8.03197149 -14.21665955 3.38768005 C-9.64606412 -0.20399043 -5.56375823 -0.03850229 0 0 Z " fill="#353131" transform="translate(298.21665954589844,41.61231994628906)"/>
<path d="M0 0 C76.89 0 153.78 0 233 0 C233 88.11 233 176.22 233 267 C156.11 267 79.22 267 0 267 C0 178.89 0 90.78 0 0 Z " fill="#DEF6FE" transform="translate(286,92)"/>
<path d="M0 0 C2.63565408 2.63565408 2.2455049 4.54096553 2.27214891 8.12846506 C2.26836958 8.99537426 2.26459026 9.86228347 2.26069641 10.75546265 C2.26452196 11.67314851 2.26834751 12.59083438 2.27228898 13.53632891 C2.28265832 16.63023355 2.27861938 19.72395397 2.2746582 22.81787109 C2.27900253 25.02839837 2.28418474 27.23892413 2.29014587 29.44944763 C2.3035779 35.46801774 2.30410983 41.48652522 2.30158257 47.5051074 C2.30051559 52.52271364 2.30538926 57.54030706 2.310188 62.55791056 C2.32193396 75.06994121 2.32104983 87.58194135 2.31463119 100.09397216 C2.30946277 110.96464277 2.32071372 121.83522375 2.33972941 132.70587663 C2.35909421 143.86144615 2.36707446 155.01698299 2.36360615 166.17257178 C2.36178952 172.4381222 2.36446721 178.70359055 2.37832069 184.96912766 C2.39085897 190.86075642 2.3889929 196.75220537 2.37590981 202.64383125 C2.37353564 204.80943041 2.37630856 206.97504207 2.38453293 209.14062691 C2.39493125 212.09081917 2.3869554 215.04040033 2.3742218 217.99057007 C2.38159609 218.85301783 2.38897037 219.71546559 2.39656812 220.60404813 C2.36649047 223.90330358 2.21870772 226.44946535 0.99422073 229.53176403 C-2.17326604 231.8638118 -5.50218031 231.54640851 -9.28175354 231.50120544 C-10.56367542 231.50950704 -10.56367542 231.50950704 -11.87149471 231.51797634 C-14.74608384 231.53163111 -17.61981195 231.5165877 -20.49438477 231.50170898 C-22.55067312 231.50549038 -24.60695893 231.51098893 -26.66323853 231.51808167 C-32.25609974 231.53207605 -37.8486547 231.5208389 -43.44149899 231.50437045 C-49.28489012 231.4905518 -55.12826288 231.49697632 -60.97166443 231.50050354 C-70.78478958 231.50320797 -80.59779258 231.48970926 -90.41088867 231.46655273 C-101.77001323 231.43993418 -113.12893359 231.43819741 -124.48807865 231.4499411 C-135.39908634 231.46070469 -146.31001987 231.45454345 -157.22102165 231.44038582 C-161.87212811 231.43461443 -166.52318051 231.43471771 -171.1742878 231.43945122 C-176.64653543 231.44420903 -182.11855826 231.4341691 -187.59076309 231.41249657 C-189.60400191 231.40691244 -191.61726227 231.40647819 -193.6305027 231.41144943 C-196.36899812 231.41736556 -199.10679759 231.40496843 -201.8452301 231.38768005 C-203.05323433 231.39669512 -203.05323433 231.39669512 -204.28564268 231.40589231 C-206.49825382 231.38031673 -206.49825382 231.38031673 -210 231 C-213.22443518 226.16334723 -213.41119921 220.66843411 -212.6171875 215.00439453 C-210.82015245 209.16829574 -205.05546242 205.18260932 -200.56347656 201.37353516 C-198.60587195 199.65375321 -196.95894092 197.76629359 -195.3125 195.75 C-192.00106493 191.84694378 -188.24883646 188.5408593 -184.41796875 185.15625 C-179.84888341 181.08171832 -175.64601822 176.79236916 -171.6875 172.125 C-168.23064648 168.10883535 -164.38443013 164.66065764 -160.41796875 161.15625 C-155.84888341 157.08171832 -151.64601822 152.79236916 -147.6875 148.125 C-144.24970124 144.13222027 -140.42859777 140.7067197 -136.484375 137.22265625 C-131.49084767 132.75517661 -126.84432047 128.0369281 -122.5 122.9375 C-119.60459475 119.57044502 -116.48249175 116.71781212 -113.10546875 113.84375 C-107.83804676 109.23109104 -102.97318715 104.2044324 -98.4375 98.875 C-95.56528709 95.52738634 -92.45989024 92.6985768 -89.10546875 89.84375 C-83.88298289 85.27044142 -79.04707495 80.29516713 -74.5625 75 C-71.15368771 71.02173415 -67.33934992 67.62082882 -63.41796875 64.15625 C-58.84888341 60.08171832 -54.64601822 55.79236916 -50.6875 51.125 C-47.23064648 47.10883535 -43.38443013 43.66065764 -39.41796875 40.15625 C-34.84888341 36.08171832 -30.64601822 31.79236916 -26.6875 27.125 C-23.23184264 23.11022505 -19.38732066 19.66296659 -15.421875 16.16015625 C-9.81106827 11.15567864 -4.82103009 5.76171889 0 0 Z " fill="#D2EFFA" transform="translate(508,119)"/>
<path d="M0 0 C32.67 0 65.34 0 99 0 C99.12049101 30.078125 99.12049101 30.078125 99.1507616 44.91250038 C99.16739951 52.94220918 99.1885374 60.9718247 99.22631836 69.00146484 C99.25621216 75.35786337 99.27557295 81.71419158 99.28226548 88.07065845 C99.28617782 91.43665186 99.29537794 94.80244413 99.31719017 98.16837311 C99.33888885 101.92519684 99.34197002 105.6816005 99.34057617 109.43847656 C99.351362 110.55553482 99.36214783 111.67259308 99.3732605 112.82350159 C99.36913651 113.84711288 99.36501251 114.87072418 99.36076355 115.925354 C99.36352893 116.81396244 99.36629431 117.70257088 99.36914349 118.61810684 C98.91454875 121.55137297 98.09535691 122.91103286 96 125 C92.93788493 125.39645135 90.23395851 125.53639149 87.16992188 125.50170898 C85.81586998 125.50981346 85.81586998 125.50981346 84.4344635 125.51808167 C81.44556052 125.53060618 78.45761381 125.51405316 75.46875 125.49609375 C73.39514109 125.49624865 71.32153188 125.49773615 69.2479248 125.50050354 C64.90001645 125.5018892 60.5524373 125.48930136 56.20458984 125.46655273 C50.62557114 125.43816777 45.04709966 125.44090327 39.46804047 125.45364285 C35.18556019 125.46059096 30.90320687 125.45282065 26.6207428 125.44038582 C24.56340522 125.43586288 22.50605405 125.43554184 20.44871521 125.43945122 C17.57555103 125.44235492 14.70314644 125.42589671 11.83007812 125.40405273 C10.9759584 125.40855438 10.12183868 125.41305603 9.24183655 125.41769409 C3.43549277 125.34418093 3.43549277 125.34418093 1.28330231 123.64325047 C-1.67394961 119.85653118 -0.4645721 113.58749121 -0.4375 109 C-0.4674707 107.19789063 -0.4674707 107.19789063 -0.49804688 105.359375 C-0.49740234 104.20953125 -0.49675781 103.0596875 -0.49609375 101.875 C-0.49794678 100.82054687 -0.4997998 99.76609375 -0.50170898 98.6796875 C0 96 0 96 2.0065918 94.30151367 C2.6644165 93.87201416 3.32224121 93.44251465 4 93 C4.48340432 90.2613775 4.48340432 90.2613775 4.25 87.3125 C4.21390625 86.31863281 4.1778125 85.32476562 4.140625 84.30078125 C4.09421875 83.54152344 4.0478125 82.78226562 4 82 C2.68 81.34 1.36 80.68 0 80 C0 53.6 0 27.2 0 0 Z " fill="#C5C5C5" transform="translate(353,373)"/>
<path d="M0 0 C17.16 0 34.32 0 52 0 C52 50.82 52 101.64 52 154 C1.18 154 -49.64 154 -102 154 C-102 145.75 -102 137.5 -102 129 C-99.11282227 128.9906543 -96.22564453 128.98130859 -93.25097656 128.97167969 C-83.71942465 128.93793598 -74.18808985 128.88240167 -64.65671158 128.81609726 C-58.87692364 128.77656194 -53.09728945 128.74440312 -47.31738281 128.72900391 C-41.74104566 128.71387729 -36.165131 128.67950271 -30.58898163 128.63169098 C-28.45993468 128.61683592 -26.33082743 128.60895663 -24.20172882 128.60811615 C-21.22289302 128.60575717 -18.24523502 128.57876349 -15.26660156 128.54589844 C-14.38331177 128.5509288 -13.50002197 128.55595917 -12.58996582 128.56114197 C-7.67263956 128.50223482 -7.67263956 128.50223482 -3.4833374 126.09088135 C-1.18930645 122.85726334 -0.87001187 121.05593765 -0.84178162 117.12789917 C-0.8319928 116.09862305 -0.82220398 115.06934692 -0.81211853 114.00888062 C-0.80636307 112.87528107 -0.8006076 111.74168152 -0.79467773 110.57373047 C-0.78477814 109.38350281 -0.77487854 108.19327515 -0.76467896 106.96697998 C-0.73845795 103.69862028 -0.71660961 100.43026587 -0.69667697 97.16186285 C-0.6748319 93.74786576 -0.64743599 90.33391341 -0.62062073 86.91995239 C-0.5706738 80.45308783 -0.52574241 73.98619846 -0.48259836 67.51928532 C-0.43324306 60.15780177 -0.37831861 52.79636309 -0.32291877 45.43492293 C-0.20906802 30.28998895 -0.10297099 15.1450126 0 0 Z " fill="#FD6D59" transform="translate(456,373)"/>
<path d="M0 0 C76.89 0 153.78 0 233 0 C233 88.11 233 176.22 233 267 C156.11 267 79.22 267 0 267 C0 178.89 0 90.78 0 0 Z M10.51178646 10.43432713 C8.18441041 14.38414793 8.45167986 18.05195045 8.49879456 22.55870056 C8.49326016 23.538643 8.48772576 24.51858544 8.48202366 25.5282231 C8.46838 28.82107316 8.48340697 32.11317015 8.49829102 35.40600586 C8.49450918 37.76298851 8.48901026 40.11996895 8.48191833 42.47694397 C8.46792816 48.8860234 8.47915902 55.29483545 8.49562955 61.7039001 C8.5097347 67.72532297 8.50387156 73.7467488 8.50049984 79.76818127 C8.49461964 91.70088597 8.50879842 103.6334852 8.53344727 115.56616211 C8.55736315 127.14530391 8.56445384 138.72430474 8.55395508 150.3034668 C8.54254489 162.91044308 8.54061746 175.51735413 8.55505317 188.12432963 C8.55657902 189.46878182 8.55809937 190.81323402 8.55961418 192.15768623 C8.560372 192.81918919 8.56112981 193.48069214 8.56191059 194.16224064 C8.56665307 198.82370629 8.56469357 203.4851255 8.56054878 208.14658928 C8.55578224 214.42156666 8.56586756 220.69634851 8.58750343 226.97128868 C8.59307607 229.27675466 8.59353225 231.58223942 8.58855057 233.88770676 C8.58261114 237.03012799 8.59507767 240.17194872 8.61231995 243.3143158 C8.6063099 244.2308507 8.60029986 245.14738561 8.59410769 246.0916943 C8.63032775 249.71159431 8.87205536 252.61045256 10.00704098 256.06609344 C13.05883274 259.02745895 16.25052123 258.68755043 20.27502441 258.62818909 C21.12893343 258.63528347 21.98284245 258.64237786 22.86262751 258.64968723 C25.7350428 258.66734395 28.6061186 258.64912376 31.47851562 258.63110352 C33.53318399 258.6362394 35.58784795 258.64351817 37.64250183 258.65278625 C43.23135526 258.67135046 48.81973358 258.65832991 54.40856743 258.63869596 C60.24882466 258.62234959 66.08905084 258.63111674 71.92932129 258.63621521 C81.73827737 258.64074066 91.54704304 258.62483829 101.35595703 258.59692383 C112.70715431 258.56487 124.05800808 258.56488625 135.40922976 258.5821386 C146.31491193 258.59798534 157.22046779 258.59128204 168.12614441 258.57420158 C172.77364958 258.567317 177.42105394 258.56837796 182.06855774 258.57574654 C187.53841008 258.58339024 193.00787005 258.57134585 198.47765541 258.54389763 C200.4888575 258.53699258 202.50009608 258.53693838 204.51129723 258.54411316 C207.2496325 258.55275849 209.9867431 258.53693594 212.72497559 258.5146637 C213.92861055 258.52702485 213.92861055 258.52702485 215.15656137 258.53963572 C218.24798489 258.49298823 220.4406738 258.40187962 222.99295902 256.56804562 C224.57025999 252.54578542 224.41556136 248.68008238 224.38768005 244.39660645 C224.39306559 243.41187489 224.39845113 242.42714334 224.40399987 241.41257143 C224.41833929 238.10369757 224.41116089 234.79522039 224.40405273 231.48632812 C224.40975312 229.11787086 224.41671609 226.74941634 224.42485046 224.38096619 C224.44096379 218.61025156 224.44287536 212.83966192 224.43763756 207.06892955 C224.43359787 202.37940228 224.43503701 197.6899072 224.44038582 193.00038147 C224.44113424 192.33321626 224.44188266 191.66605105 224.44265376 190.97866872 C224.44418522 189.62338077 224.44572357 188.26809283 224.44726873 186.9128049 C224.46099917 174.20106203 224.45555206 161.48938068 224.44408352 148.77763921 C224.43414836 137.14402025 224.44709566 125.51056026 224.47101771 113.87696582 C224.49538946 101.93483225 224.50502147 89.99277278 224.49836498 78.05061483 C224.49486874 71.34465505 224.49713148 64.6388176 224.51461601 57.93287659 C224.53003424 51.62914712 224.52618646 45.32572229 224.50731087 39.02200508 C224.50361094 36.70482506 224.50677399 34.38762272 224.51719666 32.07046318 C224.53031189 28.91441745 224.51894283 25.7593944 224.50120544 22.60339355 C224.51081045 21.68005486 224.52041546 20.75671617 224.53031152 19.80539751 C224.48693379 16.07063916 224.40455514 13.68732338 222.48821354 10.43153381 C218.94478799 8.39290915 215.66413679 8.44720818 211.68737793 8.49206543 C210.84148715 8.48582547 209.99559638 8.4795855 209.12407255 8.47315645 C206.28490685 8.45718036 203.4465942 8.46984864 200.60742188 8.48242188 C198.5739339 8.47700281 196.54044985 8.46988137 194.50697327 8.46118164 C188.98016071 8.44291982 183.45364626 8.4500277 177.92682838 8.46269798 C172.14843556 8.47281081 166.37006861 8.46343709 160.5916748 8.45715332 C150.88707894 8.44987191 141.18260475 8.45947761 131.47802734 8.47851562 C120.25123643 8.50028524 109.02473605 8.49323422 97.79795218 8.47121 C88.1664409 8.4530701 78.53501719 8.45049079 68.90349436 8.46096468 C63.14768618 8.46720735 57.39201466 8.46801395 51.63621521 8.45481873 C46.22545682 8.44328142 40.81507376 8.45124734 35.404356 8.47439575 C33.41614341 8.47969416 31.42789933 8.47814981 29.43969917 8.46934509 C26.73024406 8.4584507 24.02199956 8.47207891 21.31262207 8.49206543 C20.12605239 8.4786811 20.12605239 8.4786811 18.91551161 8.46502638 C15.65651544 8.51181472 13.35515179 8.79527326 10.51178646 10.43432713 Z " fill="#FEFEFE" transform="translate(286,92)"/>
<path d="M0 0 C0.79622819 -0.00981429 1.59245639 -0.01962858 2.41281271 -0.02974027 C3.71611084 -0.01533276 3.71611084 -0.01533276 5.04573822 -0.00063419 C5.97330004 -0.00616859 6.90086186 -0.01170299 7.85653162 -0.01740509 C10.97207648 -0.03104433 14.0868248 -0.01602441 17.20235443 -0.00113773 C19.4328826 -0.00491971 21.66340843 -0.01041875 23.89392853 -0.01751041 C29.95791588 -0.03149801 36.02162055 -0.02027191 42.08559227 -0.0037992 C48.42452352 0.01002752 54.76343797 0.00359394 61.10237885 0.00006771 C71.74854988 -0.00263629 82.39459686 0.0107702 93.04073334 0.03401852 C103.99617951 0.05793962 114.95147668 0.06502293 125.90694427 0.05452633 C139.10624675 0.04190254 152.30546278 0.0444054 165.50476837 0.06018543 C170.54776367 0.06595167 175.5907091 0.06585753 180.63370514 0.06112003 C186.56970348 0.05635605 192.50549496 0.0664281 198.44145393 0.08807468 C200.62317266 0.09365059 202.80491123 0.09410053 204.98663139 0.08912182 C207.95863213 0.08318906 210.92999612 0.09563573 213.90193939 0.1128912 C214.77080481 0.10688115 215.63967023 0.10087111 216.5348649 0.09467894 C217.3310931 0.10311888 218.12732129 0.11155882 218.94767761 0.12025452 C219.97650503 0.12179821 219.97650503 0.12179821 221.02611685 0.12337309 C222.97383881 0.50057125 222.97383881 0.50057125 226.97383881 3.50057125 C226.97383881 12.74057125 226.97383881 21.98057125 226.97383881 31.50057125 C149.42383881 31.50057125 71.87383881 31.50057125 -8.02616119 31.50057125 C-8.02616119 0.00125604 -8.02616119 0.00125604 0 0 Z " fill="#EE4E3A" transform="translate(293.02616119384766,46.49942874908447)"/>
<path d="M0 0 C1.98 0 3.96 0 6 0 C6 89.76 6 179.52 6 272 C85.53 272 165.06 272 247 272 C247 182.24 247 92.48 247 0 C248.98 0 250.96 0 253 0 C253.0228729 34.98230798 253.04050156 69.96461446 253.05106533 104.94692834 C253.05231608 109.07391253 253.0536104 113.2008967 253.05493164 117.32788086 C253.05532511 118.56032906 253.05532511 118.56032906 253.05572652 119.8176752 C253.06008162 133.13346202 253.0679683 146.44924454 253.0771528 159.76502881 C253.08649377 173.42124289 253.09205655 187.0774547 253.09408849 200.73367184 C253.0954628 209.16495214 253.0998084 217.59622028 253.10791647 226.02749684 C253.11318939 231.80372874 253.11480304 237.57995432 253.11350138 243.35618845 C253.11285886 246.69218717 253.11440694 250.02814735 253.11920547 253.36414528 C253.12414779 256.97583845 253.12299624 260.58747869 253.12025452 264.19917297 C253.12462378 265.79108136 253.12462378 265.79108136 253.12908131 267.41514951 C253.12709026 268.37905644 253.12509921 269.34296337 253.12304783 270.3360796 C253.12342755 271.17032516 253.12380727 272.00457073 253.1241985 272.86409646 C253 275 253 275 252 278 C220.04110647 278.02278973 188.08221524 278.04049784 156.12331549 278.05106533 C152.35426435 278.05231611 148.58521322 278.05361042 144.81616211 278.05493164 C144.06578011 278.05519395 143.31539811 278.05545626 142.54227727 278.05572652 C130.37618081 278.06008336 118.21008905 278.06797098 106.04399539 278.0771528 C93.56978397 278.08648896 81.09557501 278.09205553 68.62136024 278.09408849 C60.91788797 278.0954638 53.21442899 278.09981479 45.51096081 278.10791647 C39.61392925 278.11380415 33.71690459 278.11445906 27.81987 278.11310768 C25.39339046 278.11338421 22.96691044 278.11539192 20.54043388 278.11920547 C17.24333198 278.12413586 13.94628826 278.12300072 10.64918518 278.12025452 C9.67547 278.12316736 8.70175482 278.1260802 7.69853312 278.12908131 C6.82220978 278.12709026 5.94588644 278.12509921 5.04300785 278.12304783 C3.8998598 278.12361741 3.8998598 278.12361741 2.73361784 278.1241985 C1 278 1 278 0 277 C-0.09675527 275.5195715 -0.12371762 274.03452727 -0.12304783 272.55094051 C-0.12503888 271.58404889 -0.12702993 270.61715727 -0.12908131 269.6209659 C-0.12616847 268.54608606 -0.12325563 267.47120623 -0.12025452 266.36375427 C-0.12110894 265.23175584 -0.12196337 264.09975742 -0.12284368 262.933456 C-0.12450178 259.10853507 -0.11897174 255.28365719 -0.11352539 251.45874023 C-0.112688 248.72956311 -0.11335704 246.00038685 -0.1139679 243.27120972 C-0.11449333 237.37913498 -0.11134451 231.48707128 -0.10573006 225.59499931 C-0.09761767 217.07595678 -0.09500011 208.55691961 -0.09374207 200.03787363 C-0.09155113 186.21771025 -0.08488993 172.39755276 -0.07543945 158.57739258 C-0.0662664 145.14900746 -0.05918505 131.72062394 -0.05493164 118.29223633 C-0.05453756 117.05153375 -0.05453756 117.05153375 -0.05413551 115.78576647 C-0.05283051 111.63644938 -0.05156679 107.48713228 -0.05032361 103.33781517 C-0.03994971 68.89187254 -0.02233028 34.4459369 0 0 Z " fill="#C7C7C7" transform="translate(276,91)"/>
<path d="M0 0 C21.12 0 42.24 0 64 0 C64 22.44 64 44.88 64 68 C42.88 68 21.76 68 0 68 C0 45.56 0 23.12 0 0 Z " fill="#A43426" transform="translate(277,469)"/>
<path d="M0 0 C23.19104488 -0.02332644 46.38208783 -0.04097792 69.57314205 -0.05181217 C80.34035064 -0.05697567 91.10755194 -0.0640194 101.87475586 -0.07543945 C111.25585245 -0.08538464 120.63694377 -0.09185303 130.01804549 -0.09408849 C134.98850218 -0.09539588 139.9589438 -0.0984835 144.92939568 -0.10573006 C149.60208122 -0.11248767 154.27474541 -0.11461749 158.94743538 -0.11310768 C160.66761516 -0.11338413 162.38779562 -0.11539078 164.10797119 -0.11920547 C166.44606661 -0.1241387 168.78408004 -0.12299968 171.12217712 -0.12025452 C172.43388854 -0.12117631 173.74559996 -0.1220981 175.0970602 -0.12304783 C178 0 178 0 179 1 C179 7.93 179 14.86 179 22 C123.23 22 67.46 22 10 22 C9.67 17.38 9.34 12.76 9 8 C4.545 7.01 4.545 7.01 0 6 C0 4.02 0 2.04 0 0 Z " fill="#F14E39" transform="translate(353,531)"/>
<path d="M0 0 C1.69206825 -0.0238678 1.69206825 -0.0238678 3.4183197 -0.04821777 C4.63709305 -0.04841919 5.85586639 -0.04862061 7.11157227 -0.04882812 C8.36301529 -0.05644165 9.61445831 -0.06405518 10.90382385 -0.07189941 C13.5529039 -0.08271506 16.2010927 -0.08691364 18.85009766 -0.08105469 C22.24122083 -0.0751592 25.63091192 -0.10573973 29.02175808 -0.14617157 C32.2600029 -0.17827065 35.49819284 -0.17393229 38.73657227 -0.17382812 C40.56169594 -0.19842102 40.56169594 -0.19842102 42.4236908 -0.22351074 C50.81370227 -0.15449311 50.81370227 -0.15449311 54.1796875 2.70239258 C54.61224854 3.59917725 55.04480957 4.49596191 55.49047852 5.41992188 C55.83159668 6.09369873 56.17271484 6.76747559 56.52416992 7.46166992 C58.66759913 13.74921332 58.94187503 19.62412381 58.86547852 26.23242188 C58.87708008 27.25529297 58.88868164 28.27816406 58.90063477 29.33203125 C58.89676758 30.31623047 58.89290039 31.30042969 58.88891602 32.31445312 C58.88553223 33.19979736 58.88214844 34.0851416 58.87866211 34.99731445 C58.39279857 38.02953072 57.65544138 39.23991889 55.49047852 41.41992188 C52.68225098 41.92112732 52.68225098 41.92112732 49.23071289 41.92163086 C47.29355408 41.93570229 47.29355408 41.93570229 45.31726074 41.95005798 C43.90624328 41.93957999 42.49523218 41.92821102 41.08422852 41.91601562 C39.63838631 41.91617058 38.19254367 41.91765902 36.7467041 41.92042542 C33.71693554 41.92181004 30.68764 41.90924159 27.65795898 41.88647461 C23.77382303 41.85808909 19.89047311 41.8608261 16.00627899 41.87356472 C13.02082604 41.88051888 10.03555487 41.87273577 7.05012512 41.86030769 C5.61799313 41.85579058 4.18584165 41.85545868 2.75370789 41.85937309 C0.75252063 41.86228237 -1.24866301 41.84362881 -3.24975586 41.82397461 C-4.38876343 41.81857162 -5.527771 41.81316864 -6.70129395 41.80760193 C-9.50952148 41.41992188 -9.50952148 41.41992188 -11.37550354 40.03601074 C-12.93845712 37.80864573 -12.91282865 36.22509838 -12.94311523 33.51757812 C-12.95431396 32.54981445 -12.9655127 31.58205078 -12.97705078 30.58496094 C-12.96714111 29.56112305 -12.95723145 28.53728516 -12.94702148 27.48242188 C-12.94162354 26.4444043 -12.93622559 25.40638672 -12.93066406 24.33691406 C-12.77354526 16.41017711 -12.28999564 8.36020594 -7.28086853 1.81433105 C-4.81604071 -0.12598806 -3.11653414 0.02640047 0 0 Z " fill="#393939" transform="translate(379.509521484375,377.580078125)"/>
<path d="M0 0 C17.49 0 34.98 0 53 0 C53 21.45 53 42.9 53 65 C52.34 65 51.68 65 51 65 C49.948125 63.4221875 49.948125 63.4221875 48.875 61.8125 C46.34392556 58.05769287 43.51769325 56.17871372 39.57421875 54.04296875 C39.05472656 53.69878906 38.53523438 53.35460937 38 53 C38 52.34 38 51.68 38 51 C36.741875 50.731875 35.48375 50.46375 34.1875 50.1875 C31.59877705 49.63048376 29.10025246 49.03325527 26.5859375 48.19921875 C17.05011512 45.08457708 11.21316336 46 0 46 C0 30.82 0 15.64 0 0 Z " fill="#F76E5B" transform="translate(297,373)"/>
<path d="M0 0 C13.1514933 -0.02254879 26.30297386 -0.04091379 39.45448208 -0.05181217 C45.56056369 -0.05704156 51.66663144 -0.0641402 57.77270508 -0.07543945 C63.66005147 -0.08626637 69.54738449 -0.09227642 75.43474007 -0.09487724 C77.68632277 -0.09673185 79.93790469 -0.10035313 82.18948174 -0.10573006 C85.33133427 -0.11293789 88.47313083 -0.11399105 91.61499023 -0.11352539 C93.02623421 -0.1189183 93.02623421 -0.1189183 94.46598816 -0.12442017 C100.88594784 -0.11405216 100.88594784 -0.11405216 102 1 C102.09899523 2.54955559 102.13079524 4.10353673 102.1328125 5.65625 C102.13410156 6.59597656 102.13539063 7.53570313 102.13671875 8.50390625 C102.13285156 9.49261719 102.12898438 10.48132813 102.125 11.5 C102.12886719 12.48871094 102.13273437 13.47742188 102.13671875 14.49609375 C102.13542969 15.43582031 102.13414062 16.37554688 102.1328125 17.34375 C102.13168457 18.21193359 102.13055664 19.08011719 102.12939453 19.97460938 C102 22 102 22 101 23 C97.86440114 23.09534958 94.75086387 23.12550879 91.61499023 23.11352539 C90.13710526 23.11374443 90.13710526 23.11374443 88.62936401 23.1139679 C85.35575193 23.11326832 82.08219596 23.10547385 78.80859375 23.09765625 C76.54557832 23.09579223 74.28256249 23.09436825 72.01954651 23.09336853 C66.05021052 23.0895421 60.08089868 23.07971075 54.11157227 23.06866455 C48.02555671 23.05845312 41.93953727 23.05387149 35.85351562 23.04882812 C23.9023314 23.03808859 11.95117149 23.02049078 0 23 C0 15.41 0 7.82 0 0 Z " fill="#EA4D3A" transform="translate(258,541)"/>
<path d="M0 0 C2.31 0 4.62 0 7 0 C7.00331015 0.5847601 7.00662029 1.16952021 7.01003075 1.77200031 C7.09121262 15.99336073 7.18328917 30.21461559 7.28752708 44.4358263 C7.33767218 51.31307051 7.38411481 58.19030268 7.421875 65.06762695 C7.45830448 71.70070213 7.50500716 78.33365299 7.55806351 84.96661949 C7.57664119 87.50121473 7.59173657 90.03583788 7.60334396 92.57047462 C7.62014861 96.11197957 7.64916989 99.65318432 7.68115234 103.19458008 C7.68331253 104.24977844 7.68547272 105.30497681 7.68769836 106.39215088 C7.70444359 107.83715721 7.70444359 107.83715721 7.7215271 109.31135559 C7.72705786 110.14926541 7.73258862 110.98717524 7.73828697 111.85047626 C7.87243762 114.29623347 7.87243762 114.29623347 10 117 C12.75936983 117.49458197 12.75936983 117.49458197 15.99609375 117.4765625 C17.19427734 117.5075 18.39246094 117.5384375 19.62695312 117.5703125 C20.88443359 117.58835937 22.14191406 117.60640625 23.4375 117.625 C25.91544404 117.67596029 28.3933182 117.73047995 30.87109375 117.7890625 C31.97380615 117.80662598 33.07651855 117.82418945 34.21264648 117.84228516 C37 118 37 118 40 119 C42.7813654 119.09719057 45.53185227 119.13917492 48.3125 119.125 C49.05951172 119.12886719 49.80652344 119.13273437 50.57617188 119.13671875 C51.31029297 119.13542969 52.04441406 119.13414062 52.80078125 119.1328125 C53.46247314 119.13168457 54.12416504 119.13055664 54.8059082 119.12939453 C57.12918066 119.03291452 57.12918066 119.03291452 59.90429688 118.50268555 C62.89784122 118.01658872 65.70140916 117.8597405 68.73046875 117.82421875 C69.78041016 117.80037109 70.83035156 117.77652344 71.91210938 117.75195312 C74.10721933 117.70875776 76.30259793 117.67763188 78.49804688 117.65820312 C79.54412109 117.63048828 80.59019531 117.60277344 81.66796875 117.57421875 C82.61953857 117.55963623 83.5711084 117.54505371 84.55151367 117.5300293 C87.10184545 117.22056906 87.10184545 117.22056906 88.62810993 115.26505661 C90.20342454 112.66413627 90.38196758 111.24583517 90.39872742 108.22906494 C90.41753464 106.79461784 90.41753464 106.79461784 90.4367218 105.33119202 C90.43456917 103.76781349 90.43456917 103.76781349 90.43237305 102.17285156 C90.4425647 101.07011398 90.45275635 99.9673764 90.46325684 98.83122253 C90.4934642 95.18430552 90.50266486 91.53765085 90.51171875 87.890625 C90.52855964 85.36284507 90.54670908 82.83507354 90.56611633 80.30731201 C90.60882352 74.33277838 90.63832688 68.35832047 90.66143972 62.3836906 C90.68849324 55.58074435 90.73240459 48.77793955 90.77772844 41.97509432 C90.8705699 27.98347303 90.94225286 13.99180699 91 0 C92.98 0 94.96 0 97 0 C97.04667626 15.87227227 97.08196733 31.74452608 97.10362434 47.6168499 C97.11394638 54.98628913 97.12802435 62.35568576 97.15087891 69.72509766 C97.17078448 76.14666621 97.18370969 82.56820393 97.18817699 88.98980248 C97.19078919 92.3914529 97.19694809 95.79301509 97.21146011 99.1946373 C97.22588979 102.98772251 97.22798152 106.78062241 97.22705078 110.57373047 C97.23424133 111.70733002 97.24143188 112.84092957 97.24884033 114.00888062 C97.246091 115.03815674 97.24334167 116.06743286 97.24050903 117.12789917 C97.24235262 118.02572554 97.24419621 118.9235519 97.24609566 119.84858513 C97 122 97 122 95 124 C92.06368689 124.20407736 89.22130411 124.28314388 86.28344727 124.2746582 C84.92961441 124.2823246 84.92961441 124.2823246 83.5484314 124.29014587 C80.55435622 124.30408635 77.56051009 124.30308175 74.56640625 124.30078125 C72.49136773 124.30466577 70.41633001 124.30899993 68.34129333 124.31376648 C63.98751246 124.32123831 59.63381266 124.32093047 55.2800293 124.31567383 C49.693175 124.30987834 44.10665212 124.32680757 38.51985264 124.3500185 C34.23310903 124.36473106 29.9464457 124.36563092 25.65968132 124.36250877 C23.59954103 124.36302325 21.53939638 124.3682845 19.47928047 124.37832069 C16.60128199 124.39061962 13.72393486 124.38393281 10.84594727 124.37231445 C9.9902565 124.37995819 9.13456573 124.38760193 8.25294495 124.39547729 C2.43489029 124.34340756 2.43489029 124.34340756 0.28288174 122.64409161 C-2.67325489 118.85562127 -1.46457749 112.58840445 -1.4375 108 C-1.4674707 106.19789063 -1.4674707 106.19789063 -1.49804688 104.359375 C-1.49740234 103.20953125 -1.49675781 102.0596875 -1.49609375 100.875 C-1.49794678 99.82054687 -1.4997998 98.76609375 -1.50170898 97.6796875 C-1 95 -1 95 1 93.29711914 C1.66 92.86906982 2.32 92.44102051 3 92 C3.59568076 89.33634063 3.59568076 89.33634063 3.4375 86.4375 C3.43556641 84.98150391 3.43556641 84.98150391 3.43359375 83.49609375 C3.29050781 82.67238281 3.14742188 81.84867187 3 81 C2.01 80.34 1.02 79.68 0 79 C-0.28654687 76.42681081 -0.37852887 74.09502901 -0.34057617 71.52099609 C-0.34101425 70.75017197 -0.34145233 69.97934784 -0.34190369 69.18516541 C-0.3398095 66.63100063 -0.31644941 64.07748795 -0.29296875 61.5234375 C-0.28737502 59.75510008 -0.28310387 57.98675803 -0.28010559 56.21841431 C-0.26863921 51.55923678 -0.23915675 46.90033886 -0.20599365 42.24127197 C-0.1753313 37.48901146 -0.16160847 32.73670587 -0.14648438 27.984375 C-0.11428866 18.65612701 -0.06307078 9.32808673 0 0 Z " fill="#FAFAFA" transform="translate(354,374)"/>
<path d="M0 0 C0.92756182 -0.0055344 1.85512364 -0.01106879 2.8107934 -0.0167709 C5.92633826 -0.03041013 9.04108658 -0.01539021 12.15661621 -0.00050354 C14.38714438 -0.00428552 16.61767021 -0.00978455 18.84819031 -0.01687622 C24.91217766 -0.03086382 30.97588233 -0.01963772 37.03985405 -0.00316501 C43.3787853 0.01066171 49.71769975 0.00422813 56.05664062 0.0007019 C66.70281166 -0.0020021 77.34885864 0.01140439 87.99499512 0.03465271 C98.95044129 0.05857382 109.90573846 0.06565713 120.86120605 0.05516052 C134.06050853 0.04253674 147.25972455 0.0450396 160.45903015 0.06081963 C165.50202545 0.06658587 170.54497088 0.06649172 175.58796692 0.06175423 C181.52396526 0.05699024 187.45975674 0.0670623 193.39571571 0.08870888 C195.57743444 0.09428478 197.75917301 0.09473472 199.94089317 0.08975601 C202.91289391 0.08382325 205.8842579 0.09626992 208.85620117 0.11352539 C209.72506659 0.10751535 210.59393201 0.1015053 211.48912668 0.09531313 C215.00695281 0.13260174 217.32091593 0.1801546 220.46671295 1.84350491 C222.73125865 4.41225432 222.37959093 6.55636398 222.31872559 9.91917419 C222.30583496 11.17278748 222.29294434 12.42640076 222.27966309 13.71800232 C222.22938965 15.68350037 222.22938965 15.68350037 222.17810059 17.68870544 C222.15803365 19.02396555 222.1397832 20.35925428 222.12341309 21.69456482 C222.07619862 24.96416691 222.01035243 28.23232736 221.92810059 31.50120544 C219.28810059 31.50120544 216.64810059 31.50120544 213.92810059 31.50120544 C213.59810059 24.24120544 213.26810059 16.98120544 212.92810059 9.50120544 C209.68491266 7.87961148 206.12624651 8.36839921 202.56332397 8.38095093 C201.68773492 8.3800965 200.81214586 8.37924208 199.91002381 8.37836176 C196.95883496 8.37670694 194.00770222 8.38222838 191.05651855 8.38768005 C188.94787599 8.38796195 186.83923333 8.38780414 184.73059082 8.38723755 C178.99121433 8.38694967 173.25185859 8.39284481 167.51248693 8.39981151 C161.52001391 8.40604668 155.52754046 8.40664897 149.5350647 8.40783691 C138.18076758 8.41094974 126.82648005 8.41916249 115.47218716 8.4291864 C102.5485669 8.44034903 89.62494619 8.44585837 76.70132232 8.45088184 C50.11024308 8.46134513 23.51917237 8.47894365 -3.07189941 8.50120544 C-4.27460906 10.90662473 -4.27506605 12.60487136 -4.38830566 15.29026794 C-4.4302002 16.23128357 -4.47209473 17.17229919 -4.51525879 18.14183044 C-4.5742334 19.61909607 -4.5742334 19.61909607 -4.63439941 21.12620544 C-4.67758301 22.11878357 -4.7207666 23.11136169 -4.76525879 24.13401794 C-4.8715101 26.58960382 -4.97354905 29.04529248 -5.07189941 31.50120544 C-7.71189941 31.50120544 -10.35189941 31.50120544 -13.07189941 31.50120544 C-13.18798069 27.08475947 -13.25911261 22.66870527 -13.32189941 18.25120544 C-13.35541504 16.99694763 -13.38893066 15.74268982 -13.42346191 14.45042419 C-13.43635254 13.24515076 -13.44924316 12.03987732 -13.46252441 10.79808044 C-13.48347168 9.68787537 -13.50441895 8.57767029 -13.52600098 7.43382263 C-13.07189941 4.50120544 -13.07189941 4.50120544 -11.61051178 2.34924221 C-7.84596238 -0.39124145 -4.54849237 -0.05028201 0 0 Z " fill="#FBF9F8" transform="translate(298.0718994140625,46.49879455566406)"/>
<path d="M0 0 C3.65618049 2.66727072 6.48242485 5.22363728 9 9 C9 10.32 9 11.64 9 13 C9.78375 13.12375 10.5675 13.2475 11.375 13.375 C14 14 14 14 16 16 C16.30078125 18.09375 16.30078125 18.09375 16.3125 20.5 C16.32925781 21.2940625 16.34601563 22.088125 16.36328125 22.90625 C16.24339844 23.5971875 16.12351562 24.288125 16 25 C13 27 13 27 9 27 C8.95875 27.66 8.9175 28.32 8.875 29 C7.38701658 34.10165743 4.40767479 38.38256012 -0.03515625 41.3671875 C-6.90251719 44.8843032 -14.01864254 46.55667421 -21.5625 44.19921875 C-28.16165953 41.27184768 -32.24659803 37.12940873 -36 31 C-36.495 29.515 -36.495 29.515 -37 28 C-39.47130918 26.84478498 -39.47130918 26.84478498 -42 26 C-43 25 -43 25 -43.09765625 22.71484375 C-43.08605469 21.79832031 -43.07445312 20.88179688 -43.0625 19.9375 C-43.05347656 19.01839844 -43.04445313 18.09929687 -43.03515625 17.15234375 C-43.02355469 16.44207031 -43.01195312 15.73179687 -43 15 C-41.700625 14.5359375 -41.700625 14.5359375 -40.375 14.0625 C-36.97650084 11.9856394 -36.07981657 10.89294409 -34.0625 7.625 C-30.65109125 2.14715044 -26.9404986 -0.65759846 -21.125 -3.3125 C-13.19363075 -5.05740123 -7.01183826 -4.17645011 0 0 Z " fill="#393939" transform="translate(416,438)"/>
<path d="M0 0 C4.88045627 3.93350207 8.81239465 8.421563 10.84375 14.4375 C10.84375 16.7475 10.84375 19.0575 10.84375 21.4375 C-15.88625 21.4375 -42.61625 21.4375 -70.15625 21.4375 C-68.81726828 10.72564624 -64.80304404 5.13332287 -56.66015625 -1.76953125 C-39.62724349 -13.96626597 -16.52718886 -11.97622381 0 0 Z " fill="#EF4F3A" transform="translate(338.15625,431.5625)"/>
<path d="M0 0 C3.96 0 7.92 0 12 0 C12 50.82 12 101.64 12 154 C8.04 154 4.08 154 0 154 C0 103.18 0 52.36 0 0 Z " fill="#EA4B37" transform="translate(512,373)"/>
<path d="M0 0 C23.19104488 -0.02332644 46.38208783 -0.04097792 69.57314205 -0.05181217 C80.34035064 -0.05697567 91.10755194 -0.0640194 101.87475586 -0.07543945 C111.25585245 -0.08538464 120.63694377 -0.09185303 130.01804549 -0.09408849 C134.98850218 -0.09539588 139.9589438 -0.0984835 144.92939568 -0.10573006 C149.60208122 -0.11248767 154.27474541 -0.11461749 158.94743538 -0.11310768 C160.66761516 -0.11338413 162.38779562 -0.11539078 164.10797119 -0.11920547 C166.44606661 -0.1241387 168.78408004 -0.12299968 171.12217712 -0.12025452 C172.43388854 -0.12117631 173.74559996 -0.1220981 175.0970602 -0.12304783 C178 0 178 0 179 1 C179.08685603 2.56172745 179.10702219 4.12729344 179.09765625 5.69140625 C179.09443359 6.63564453 179.09121094 7.57988281 179.08789062 8.55273438 C179.07951172 9.54595703 179.07113281 10.53917969 179.0625 11.5625 C179.05798828 12.55958984 179.05347656 13.55667969 179.04882812 14.58398438 C179.03700007 17.05604849 179.02051849 19.52799518 179 22 C176.36 22 173.72 22 171 22 C170.67 17.71 170.34 13.42 170 9 C168.00296524 8.99191315 166.00593048 8.98382629 163.94837952 8.97549438 C145.12917313 8.89835467 126.31003955 8.81038557 107.4909296 8.71247292 C97.8158278 8.66239472 88.14073427 8.61595129 78.46557617 8.578125 C70.03070585 8.54513849 61.59590062 8.50527059 53.16110224 8.45720994 C48.69677585 8.43201109 44.23249228 8.4102104 39.76811409 8.39665604 C35.56153364 8.3837755 31.35510049 8.36165709 27.14860153 8.33261681 C25.60918081 8.3235877 24.0697364 8.31786177 22.5302906 8.31578636 C14.77921916 8.30347108 7.51248779 8.09620311 0 6 C0 4.02 0 2.04 0 0 Z " fill="#F5F0F0" transform="translate(353,531)"/>
<path d="M0 0 C2.97 0 5.94 0 9 0 C9 50.82 9 101.64 9 154 C6.03 154 3.06 154 0 154 C0 103.18 0 52.36 0 0 Z " fill="#FBF9F8" transform="translate(499,373)"/>
<path d="M0 0 C82.83 0 165.66 0 251 0 C251.33 1.65 251.66 3.3 252 5 C168.84 5 85.68 5 0 5 C0 3.35 0 1.7 0 0 Z " fill="#FCFCFC" transform="translate(277,82)"/>
<path d="M0 0 C20.79 0 41.58 0 63 0 C63 5.94 63 11.88 63 18 C62 19 62 19 59.52598572 19.12025452 C58.42678299 19.11803391 57.32758026 19.11581329 56.19506836 19.11352539 C54.33325172 19.11341209 54.33325172 19.11341209 52.43382263 19.11329651 C51.0691626 19.10818911 49.70450298 19.1029731 48.33984375 19.09765625 C46.95121817 19.095792 45.56259193 19.09436813 44.17396545 19.09336853 C40.51278885 19.08954387 36.8516517 19.07971403 33.19049072 19.06866455 C29.45707737 19.05844932 25.72365766 19.05387067 21.99023438 19.04882812 C14.66013615 19.0380917 7.33007862 19.02049534 0 19 C0 12.73 0 6.46 0 0 Z " fill="#C6C6C6" transform="translate(371,396)"/>
<path d="M0 0 C7.86889069 5.73074029 12.22922765 11.64864331 15 21 C16.56840404 31.4375207 13.64376816 39.44297247 8 48 C2.44809435 54.73097015 -4.74620618 58.29086116 -13.328125 59.44921875 C-23.07440179 59.93223908 -30.8133375 57.56832373 -38.1953125 51.06640625 C-42.45523151 46.49456849 -46 41.44157742 -46 35 C-46.66 35 -47.32 35 -48 35 C-48.05428973 32.77110504 -48.09292338 30.54182529 -48.125 28.3125 C-48.15980469 26.45044922 -48.15980469 26.45044922 -48.1953125 24.55078125 C-48.00715601 21.13009634 -47.45873362 19.05340657 -46 16 C-45.75121094 15.35417969 -45.50242187 14.70835937 -45.24609375 14.04296875 C-41.98500125 6.55978549 -35.9670151 1.29082516 -28.8125 -2.5 C-19.53111417 -6.13466857 -8.48442504 -5.10782418 0 0 Z M-36 12 C-37.31829107 14.05463383 -38.54092177 16.15029856 -39.765625 18.26171875 C-41.44872491 20.63190691 -43.20665236 21.36152054 -46 22 C-46.05395478 23.62463842 -46.09277195 25.24978541 -46.125 26.875 C-46.14820313 27.77992188 -46.17140625 28.68484375 -46.1953125 29.6171875 C-46.24324836 32.18806994 -46.24324836 32.18806994 -44 34 C-43.360625 34.0825 -42.72125 34.165 -42.0625 34.25 C-38.83964368 35.42194775 -38.42695189 37.974862 -37 41 C-33.13045408 46.74568939 -28.54659111 49.71016096 -22 52 C-15.14067002 53.21790449 -8.1664678 51.52765713 -2.2421875 47.93359375 C1.75443756 44.89093698 3.86353594 41.43727151 6 37 C6 36.01 6 35.02 6 34 C6.969375 33.855625 7.93875 33.71125 8.9375 33.5625 C11.86486773 33.32437659 11.86486773 33.32437659 13 32 C13.36862727 28.96637886 13.40403267 26.03024499 13 23 C11.34628384 20.81981316 11.34628384 20.81981316 9 20 C8.01 20 7.02 20 6 20 C5.938125 19.29875 5.87625 18.5975 5.8125 17.875 C4.15702999 12.01718305 0.47834428 9.07163757 -4.625 6.1875 C-16.09125813 0.14129904 -26.93957259 2.93957259 -36 12 Z " fill="#E5E5E5" transform="translate(419,431)"/>
<path d="M0 0 C13.1514933 -0.02254879 26.30297386 -0.04091379 39.45448208 -0.05181217 C45.56056369 -0.05704156 51.66663144 -0.0641402 57.77270508 -0.07543945 C63.66005147 -0.08626637 69.54738449 -0.09227642 75.43474007 -0.09487724 C77.68632277 -0.09673185 79.93790469 -0.10035313 82.18948174 -0.10573006 C85.33133427 -0.11293789 88.47313083 -0.11399105 91.61499023 -0.11352539 C93.02623421 -0.1189183 93.02623421 -0.1189183 94.46598816 -0.12442017 C100.88594784 -0.11405216 100.88594784 -0.11405216 102 1 C102.08685603 2.56172745 102.10702219 4.12729344 102.09765625 5.69140625 C102.09282227 7.10776367 102.09282227 7.10776367 102.08789062 8.55273438 C102.07532227 10.04256836 102.07532227 10.04256836 102.0625 11.5625 C102.05798828 12.55958984 102.05347656 13.55667969 102.04882812 14.58398438 C102.03700007 17.05604849 102.02051849 19.52799518 102 22 C99.36 22 96.72 22 94 22 C94 17.05 94 12.1 94 7 C65.29 7 36.58 7 7 7 C7 11.95 7 16.9 7 22 C4.69 22 2.38 22 0 22 C0 14.74 0 7.48 0 0 Z " fill="#F7F0EF" transform="translate(258,541)"/>
<path d="M0 0 C9.86005439 6.4673475 16.21381259 14.39143778 19.9375 25.5625 C20.86431471 38.09728913 19.186734 47.56140826 11.06640625 57.453125 C2.97109532 65.47416702 -6.05701361 69.0863109 -17.25732422 69.13476562 C-26.9099978 68.84705553 -35.33814816 64.8369964 -42.125 57.875 C-49.78942152 47.68170844 -51.57519832 36.96045197 -50.0625 24.5625 C-48.2532494 15.70781473 -43.9675187 9.00367718 -36.5625 3.80859375 C-25.66305038 -2.92246517 -12.06971035 -6.18037651 0 0 Z M-41.0625 13.5625 C-42.70657777 16.13137152 -43.94122571 18.73155996 -45.0625 21.5625 C-45.4234375 22.31660156 -45.784375 23.07070313 -46.15625 23.84765625 C-47.3074016 27.2961492 -47.25529304 30.24807224 -47.1875 33.875 C-47.16945313 35.12925781 -47.15140625 36.38351562 -47.1328125 37.67578125 C-47.09800781 39.10470703 -47.09800781 39.10470703 -47.0625 40.5625 C-46.4025 40.5625 -45.7425 40.5625 -45.0625 40.5625 C-45.02125 41.366875 -44.98 42.17125 -44.9375 43 C-42.87153492 51.41142926 -37.27988442 57.12103267 -30.0625 61.5625 C-22.87266547 65.87640072 -14.27323743 65.76332838 -6.21484375 63.90625 C3.47449497 60.43186579 9.35752995 54.24693121 13.83203125 45.11108398 C16.91052395 38.10399799 17.34940878 31.28778264 15.16015625 23.9609375 C14.22436152 21.71352686 13.16504073 19.66257839 11.9375 17.5625 C11.380625 16.53125 10.82375 15.5 10.25 14.4375 C5.36050828 8.35867246 -1.25040582 3.02645795 -9.0625 1.5625 C-22.19598519 0.16264349 -32.2031984 3.61629334 -41.0625 13.5625 Z " fill="#383838" transform="translate(418.0625,425.4375)"/>
<path d="M0 0 C30.03 0 60.06 0 91 0 C91 2.64 91 5.28 91 8 C60.97 8 30.94 8 0 8 C0 5.36 0 2.72 0 0 Z " fill="#F76B57" transform="translate(263,457)"/>
<path d="M0 0 C4.29 0 8.58 0 13 0 C13 15.84 13 31.68 13 48 C4 51 4 51 0 52 C0 34.84 0 17.68 0 0 Z " fill="#DF4936" transform="translate(281,373)"/>
<path d="M0 0 C5.28684326 4.26103785 10.15978038 9.59641632 11.14453125 16.56640625 C11.15625 18.5 11.15625 18.5 10.84375 21.4375 C9.19375 21.4375 7.54375 21.4375 5.84375 21.4375 C5.31587891 20.25994141 5.31587891 20.25994141 4.77734375 19.05859375 C0.46194677 9.87569938 -3.83996223 3.65049405 -13.06640625 -0.8359375 C-22.02463391 -3.95038674 -36.51204384 -4.67160734 -45.34375 -0.9375 C-47.32119771 0.13955403 -47.32119771 0.13955403 -49.15625 1.4375 C-49.87039063 1.90800781 -50.58453125 2.37851562 -51.3203125 2.86328125 C-58.56534909 7.96115245 -61.73119786 13.00493235 -64.15625 21.4375 C-66.13625 21.4375 -68.11625 21.4375 -70.15625 21.4375 C-69.82102759 12.21888368 -65.5263167 6.45074144 -58.96875 0.1875 C-42.07936178 -14.12990017 -17.35528093 -12.57629053 0 0 Z " fill="#F0ECEB" transform="translate(338.15625,431.5625)"/>
<path d="M0 0 C2.32852173 -0.36076355 2.32852173 -0.36076355 5.27587891 -0.34057617 C6.92736435 -0.34023628 6.92736435 -0.34023628 8.61221313 -0.33988953 C9.80494843 -0.32440567 10.99768372 -0.30892181 12.2265625 -0.29296875 C13.44451508 -0.28872391 14.66246765 -0.28447906 15.91732788 -0.28010559 C19.82010704 -0.26326831 23.72237604 -0.22560595 27.625 -0.1875 C30.26561756 -0.17245974 32.90624319 -0.15877019 35.546875 -0.14648438 C42.03144756 -0.11334811 48.51563719 -0.06153045 55 0 C55.99 3.3 56.98 6.6 58 10 C38.2 10 18.4 10 -2 10 C-2 3 -2 3 0 0 Z " fill="#AFAFAF" transform="translate(375,382)"/>
<path d="M0 0 C0 1.65 0 3.3 0 5 C-1.31088682 5.31919939 -2.62385248 5.62985947 -3.9375 5.9375 C-4.66839844 6.11152344 -5.39929688 6.28554688 -6.15234375 6.46484375 C-21.0974096 9.27345009 -36.33720307 9.01851531 -51 5 C-51 3.35 -51 1.7 -51 0 C-35.98575347 -5.53156451 -14.7861615 -7.39308075 0 0 Z " fill="#E3E3E3" transform="translate(428,456)"/>
<path d="M0 0 C2.64 0 5.28 0 8 0 C8 14.52 8 29.04 8 44 C5.36 44 2.72 44 0 44 C0 29.48 0 14.96 0 0 Z " fill="#FEFEFE" transform="translate(298,374)"/>
<path d="M0 0 C1.65 0 3.3 0 5 0 C5 22.44 5 44.88 5 68 C3.35 68 1.7 68 0 68 C0 45.56 0 23.12 0 0 Z " fill="#DE4936" transform="translate(345,469)"/>
<path d="M0 0 C1.65 0 3.3 0 5 0 C5 22.44 5 44.88 5 68 C3.35 68 1.7 68 0 68 C0 45.56 0 23.12 0 0 Z " fill="#E94B37" transform="translate(268,469)"/>
<path d="M0 0 C11.55 0 23.1 0 35 0 C32.6117817 5.97054575 29.96758124 8.64523465 24.125 11.3125 C17.42436536 12.78663962 12.78909898 12.52433612 6.83203125 9.2109375 C4.14218681 7.43300194 2.04192605 5.48859738 0 3 C0 2.01 0 1.02 0 0 Z " fill="#D2D2D2" transform="translate(385,467)"/>
<path d="M0 0 C3.3 0 6.6 0 10 0 C9.67 1.65 9.34 3.3 9 5 C21.21 5 33.42 5 46 5 C46 3.35 46 1.7 46 0 C49.3 0 52.6 0 56 0 C56.66 2.64 57.32 5.28 58 8 C38.2 8 18.4 8 -2 8 C-1 3 -1 3 0 0 Z " fill="#D6D6D6" transform="translate(375,384)"/>
<path d="M0 0 C2.35924626 1.68952474 4.56036399 3.46802915 6.4375 5.6875 C6.4375 6.6775 6.4375 7.6675 6.4375 8.6875 C5.72577637 8.52523926 5.01405273 8.36297852 4.28076172 8.19580078 C1.43524588 7.68709702 -1.16695064 7.5581721 -4.0546875 7.5546875 C-5.60736328 7.55275391 -5.60736328 7.55275391 -7.19140625 7.55078125 C-8.79822266 7.55658203 -8.79822266 7.55658203 -10.4375 7.5625 C-11.50097656 7.55863281 -12.56445312 7.55476563 -13.66015625 7.55078125 C-19.06793689 7.55749899 -24.23658923 7.7315673 -29.5625 8.6875 C-27.18058227 4.05599331 -23.85108044 -0.20462002 -18.73046875 -1.9296875 C-12.26560782 -3.07123051 -5.73791143 -3.54494343 0 0 Z " fill="#D1D1D1" transform="translate(413.5625,441.3125)"/>
<path d="M0 0 C12.21 0 24.42 0 37 0 C37 1.32 37 2.64 37 4 C24.79 4 12.58 4 0 4 C0 2.68 0 1.36 0 0 Z " fill="#2E2E2E" transform="translate(384,385)"/>
<path d="M0 0 C0.33 0 0.66 0 1 0 C1 36.96 1 73.92 1 112 C0.67 112 0.34 112 0 112 C0 104.74 0 97.48 0 90 C-0.66 90 -1.32 90 -2 90 C-2 88.02 -2 86.04 -2 84 C-1.34 84 -0.68 84 0 84 C0 56.28 0 28.56 0 0 Z " fill="#E6E6E6" transform="translate(360,374)"/>
<path d="M0 0 C3.3 0 6.6 0 10 0 C10 1.65 10 3.3 10 5 C21.55 5.33 33.1 5.66 45 6 C45 6.33 45 6.66 45 7 C29.49 7 13.98 7 -2 7 C-1 3 -1 3 0 0 Z " fill="#F0F0F0" transform="translate(375,384)"/>
<path d="M0 0 C0 0.33 0 0.66 0 1 C-0.94875 1.28875 -1.8975 1.5775 -2.875 1.875 C-6.05211578 2.76825109 -6.05211578 2.76825109 -8 5 C-8.37135915 7.52037964 -8.37135915 7.52037964 -8.4140625 10.4453125 C-8.45273438 11.52167969 -8.49140625 12.59804688 -8.53125 13.70703125 C-8.5621875 14.83496094 -8.593125 15.96289062 -8.625 17.125 C-8.66367188 18.26066406 -8.70234375 19.39632812 -8.7421875 20.56640625 C-8.83667601 23.37743956 -8.92223541 26.18846233 -9 29 C-9.33 29 -9.66 29 -10 29 C-10.08692074 24.72929442 -10.14036515 20.45881542 -10.1875 16.1875 C-10.21263672 14.97255859 -10.23777344 13.75761719 -10.26367188 12.50585938 C-10.27333984 11.34248047 -10.28300781 10.17910156 -10.29296875 8.98046875 C-10.3086792 7.90692139 -10.32438965 6.83337402 -10.34057617 5.72729492 C-10 3 -10 3 -8.7121582 1.13793945 C-5.946834 -0.69995818 -3.21497625 -0.18197979 0 0 Z " fill="#101010" transform="translate(263,536)"/>
<path d="M0 0 C1.65 0 3.3 0 5 0 C5 2.64 5 5.28 5 8 C3.35 8 1.7 8 0 8 C0 5.36 0 2.72 0 0 Z " fill="#EFE0DE" transform="translate(263,457)"/>
<path d="M0 0 C2.01255455 3.33058046 2.19241358 5.76916495 2.0625 9.625 C1.83502304 13.46174054 1.83502304 13.46174054 3 17 C1.68 17.33 0.36 17.66 -1 18 C-1.02707139 15.75006641 -1.04642829 13.50003905 -1.0625 11.25 C-1.07410156 9.99703125 -1.08570313 8.7440625 -1.09765625 7.453125 C-1.02021027 4.71463499 -0.82780815 2.58119707 0 0 Z " fill="#B9B9B9" transform="translate(372,448)"/>
<path d="M0 0 C1.32 0 2.64 0 4 0 C4 2.64 4 5.28 4 8 C2.68 8 1.36 8 0 8 C0 5.36 0 2.72 0 0 Z " fill="#F4EBEA" transform="translate(350,457)"/>
<path d="M0 0 C0.66 0.33 1.32 0.66 2 1 C-1.96 4.96 -5.92 8.92 -10 13 C-10 8.41771462 -7.08388033 6.1816619 -4 3 C-1.625 1.0625 -1.625 1.0625 0 0 Z " fill="#4B4B4B" transform="translate(383,428)"/>
</svg>
